<svg xmlns="http://www.w3.org/2000/svg" width="26.159" height="26.159" viewBox="0 0 26.159 26.159"><defs><style>.a{fill:#fff;}</style></defs><g transform="translate(0 0)"><g transform="translate(2.759 0)"><g transform="translate(0 0)"><path class="a" d="M77.142.067a.511.511,0,0,0-.513,0L67.266,5.607a.511.511,0,0,0,.52.88L74.5,2.515,61.991,15.5l-6.223-1.9,8.122-4.8a.511.511,0,0,0-.52-.88L54.25,13.3a.511.511,0,0,0,.111.928l7.432,2.274,3.279,5.968.011.016a.509.509,0,0,0,.794.1l3.77-3.685,7.092,2.17a.511.511,0,0,0,.66-.489V.511A.511.511,0,0,0,77.142.067ZM65.1,16.821a.511.511,0,0,0-.091.291v3.125L62.77,16.162l9.908-10.28Zm.931,4.194V17.8l2.5.766ZM76.378,19.9l-10.04-3.071L76.378,2.335Z" transform="translate(-53.999 0)"/></g></g><g transform="translate(2.759 17.608)"><path class="a" d="M59.641,344.8a.511.511,0,0,0-.723,0l-4.77,4.77a.511.511,0,0,0,.723.723l4.77-4.77A.511.511,0,0,0,59.641,344.8Z" transform="translate(-53.999 -344.648)"/></g><g transform="translate(0 23.962)"><g transform="translate(0)"><path class="a" d="M2.048,469.15a.511.511,0,0,0-.723,0L.15,470.326a.511.511,0,1,0,.723.722l1.175-1.175A.511.511,0,0,0,2.048,469.15Z" transform="translate(0 -469.001)"/></g></g><g transform="translate(6.416 25.107)"><path class="a" d="M126.452,491.56a.511.511,0,1,0,.15.361A.515.515,0,0,0,126.452,491.56Z" transform="translate(-125.58 -491.41)"/></g><g transform="translate(7.691 21.305)"><path class="a" d="M153.933,417.156a.511.511,0,0,0-.723,0l-2.526,2.526a.511.511,0,1,0,.723.723l2.526-2.526A.511.511,0,0,0,153.933,417.156Z" transform="translate(-150.534 -417.006)"/></g><g transform="translate(16.403 21.111)"><path class="a" d="M324.458,413.361a.511.511,0,0,0-.723,0l-2.533,2.533a.511.511,0,0,0,.723.723l2.533-2.533A.511.511,0,0,0,324.458,413.361Z" transform="translate(-321.053 -413.211)"/></g><g transform="translate(13.613 6.814)"><path class="a" d="M267.3,133.53a.511.511,0,1,0,.15.362A.515.515,0,0,0,267.3,133.53Z" transform="translate(-266.43 -133.38)"/></g></g></svg>